PathFileType	4	(X/Y/Z)	OpenSim_Sub04_CSBaseline_Accel.trc
DataRate	CameraRate	NumFrames	NumMarkers	Units	OrigDataRate	OrigDataStartFrame	OrigNumFrames
100	100	37	8	m	100	1011	8083
Frame#	Time	torso_imu_offset_imu	pelvis_imu_offset_imu	tibia_r_imu_offset_imu	femur_r_imu_offset_imu	tibia_l_imu_offset_imu	femur_l_imu_offset_imu	toes_r_imu_offset_imu	toes_l_imu_offset_imu
				X1	Y1	Z1	X2	Y2	Z2	X3	Y3	Z3	X4	Y4	Z4	X5	Y5	Z5	X6	Y6	Z6	X7	Y7	Z7	X8		Y8	Z8	

1011	10.10000000	-7.81565726	-0.68622844	8.22166051	9.38413790	-0.76369578	4.53852644	3.19685285	6.16125634	1.16308833	10.03812132	0.03560025	2.16866049	10.19559115	-2.16790033	-1.35617515	9.48600145	-0.54790979	-2.34709744	3.37663083	-2.07786344	10.29389291	5.45985809	2.06760845	10.72235726
1012	10.11000000	-7.72167113	-0.69981563	8.23968745	9.03286763	-0.81161938	4.44479579	3.15155795	6.94903319	0.95483497	9.98842997	0.23073684	2.15512412	10.07925346	-2.34514229	-1.08464384	9.74687485	-0.67928130	-2.61506724	2.49466358	-2.10343155	9.05228721	5.97866344	2.09932989	10.42736967
1013	10.12000000	-7.75684463	-0.73722735	8.37721839	8.74309847	-0.85611501	4.33228441	3.58268746	7.28069770	1.03654161	9.95856351	0.37109689	2.02260625	10.26410020	-2.24079026	-0.84381704	9.67582526	0.91451050	-3.07675621	1.86337648	-1.46407491	7.83163239	5.58297338	2.25719129	10.59877044
1014	10.13000000	-7.76729374	-0.83324714	8.55289486	8.63134333	-0.87552012	4.23221920	3.95221703	6.94257784	0.88724894	9.86146091	0.13470850	2.00236453	10.26029718	-1.92350859	-0.46571232	9.89185651	1.17567367	-2.93836008	1.51246257	-1.03151915	6.85004233	5.82124377	2.57805433	10.39554632
1015	10.14000000	-7.70893461	-0.88142100	8.63283131	8.52678372	-0.98561228	4.23357695	4.18048385	6.56833485	0.71946018	9.74627689	-0.18264837	2.08502498	9.83611956	-1.61971769	-0.38512338	9.50674691	1.86993644	-2.81657535	1.98783125	-0.75439133	6.48419885	5.36687138	2.59097324	10.65419110
1016	10.15000000	-7.64399177	-0.87048662	8.63956058	8.65771602	-0.99462100	4.10007331	4.32388012	6.28235036	0.91033027	9.47948065	-0.56400782	2.28446201	9.60512160	-1.62909896	-0.34168773	9.61232098	1.65102684	-2.44582061	3.26021578	-0.68379443	6.68135081	5.58441946	2.53146128	10.35334483
1017	10.16000000	-7.69041548	-0.83621569	8.64504143	8.78850021	-0.94488370	3.99963119	4.23037024	6.80527768	0.93559702	9.18709332	-0.79626128	2.41216074	9.41853809	-1.79241863	-0.28432959	9.43888801	1.83570371	-2.29588205	4.72136469	-0.71004874	7.23092674	5.79276152	2.69916810	10.32118100
1018	10.17000000	-7.70076516	-0.78421629	8.57769851	8.98096180	-0.95811964	3.88624240	3.94175548	8.00416621	0.58543188	8.82395113	-0.96397276	2.52690193	9.32793181	-1.92039018	-0.17995590	9.11629815	1.57955090	-2.01619981	6.22322482	-0.51417735	7.90215709	5.94119829	2.37865517	10.20156825
1019	10.18000000	-7.74547248	-0.69588482	8.46325088	9.15916851	-1.07662044	3.70194371	3.90824119	8.51595238	0.17751533	8.39877095	-0.98976755	2.59986481	9.48634327	-2.17695468	-0.38151861	9.17880830	1.83540736	-1.86438680	7.98459642	-0.59381239	8.24299195	5.46490179	1.98643238	10.65145922
1020	10.19000000	-7.66335726	-0.69564625	8.30445136	9.38121779	-1.14755043	3.56658792	4.54941150	8.55661554	0.09827397	8.02778182	-0.94935063	2.48857295	9.75677100	-2.55659231	-0.28555459	9.15166514	2.15669105	-1.75626332	9.16305933	-1.10227243	8.37983779	5.42790077	2.53219039	10.71436319
1021	10.20000000	-7.55694147	-0.69289785	8.18667752	9.55692240	-1.28721433	3.44900661	5.33076266	8.86113695	0.08933362	7.70493032	-0.87148552	2.41778924	9.79000941	-2.51721731	-0.27271415	9.24097456	2.21288636	-1.64924292	9.95012470	-1.13756247	8.63302415	5.79567143	2.70576564	10.25082457
1022	10.21000000	-7.53036511	-0.77554324	8.17573600	9.70758328	-1.38235075	3.27362792	5.65490329	9.25464673	0.01974120	7.50353098	-0.68942523	2.33895974	9.55594437	-2.21854306	-0.48017662	9.34567365	2.49153959	-1.64345276	10.82190407	-1.17819208	8.87070962	5.68840902	2.93611085	10.35879883
1023	10.22000000	-7.45517777	-0.85130762	8.14526066	9.72914398	-1.53411948	3.16086744	5.82065708	9.47530726	-0.06918368	7.26095359	-0.44251341	2.32238533	9.56004611	-2.15946941	-0.61099731	9.43795193	2.70340841	-1.70749669	11.16396699	-1.50315438	9.00208985	5.67004286	3.16328925	10.31106667
1024	10.23000000	-7.27550077	-0.90645394	8.13965749	9.56139021	-1.59814064	3.05930614	6.18582950	9.46320262	-0.28165429	7.18988608	-0.13233318	2.47135476	9.44883705	-2.10904297	-0.71913882	9.43445320	2.63164492	-1.77033186	11.55916056	-1.99948588	9.26042140	5.29966311	3.17630899	10.30378143
1025	10.24000000	-7.17814969	-0.88197517	8.18979226	9.32096340	-1.67389412	2.92917167	6.70374589	8.95533066	-0.58085067	7.10022463	-0.06006027	2.67073776	9.37468380	-2.30394353	-0.81366782	9.37116952	2.46491659	-1.91111505	13.36656517	-2.67750283	10.01711029	5.45878020	3.58622686	10.35079808
1026	10.25000000	-7.08819735	-0.88286464	8.18210045	9.08604120	-1.55033275	2.82964813	7.10209399	7.72242413	-0.22950697	7.03964270	-0.19651470	2.87424498	9.37760609	-2.48535868	-1.06009238	9.34374574	2.07262361	-2.02738853	16.77144861	-3.00903393	10.48174072	5.76506302	3.44607972	10.12664955
1027	10.26000000	-7.05628068	-0.88230999	8.06282915	8.86826626	-1.28963467	2.62596728	7.38126556	5.58190033	0.85997517	7.02934258	-0.40687885	2.92584353	9.62169264	-2.84131876	-0.75200229	9.47211884	1.67410407	-2.01941043	18.53281789	-3.01801744	10.03277370	5.83929187	3.23189769	9.93991828
1028	10.27000000	-7.03302266	-1.00961387	7.94915078	8.70063577	-1.07139330	2.57695822	8.18516945	3.47035851	1.33870059	7.02688402	-0.76893431	3.02360663	9.63355756	-3.24150213	-0.67278945	9.57460233	1.35330798	-2.05772528	18.74377135	-2.61818980	8.89667624	5.75519558	3.34484709	10.14323481
1029	10.28000000	-6.98290555	-1.02706183	7.92966080	8.44519582	-0.90165264	2.54730462	9.34268992	2.64367223	1.17531208	7.13852178	-1.38091192	3.19224651	9.63360465	-3.36421690	-0.56219715	9.51531840	1.18319008	-2.02415704	19.28264183	-1.72581303	7.63645526	5.46735058	3.14746445	10.29026549
1030	10.29000000	-6.93784437	-1.09653575	7.91316042	8.16235727	-0.89703026	2.60378848	10.06458301	3.17029453	1.37892976	7.33384422	-2.14435998	3.36222294	9.63593706	-2.94905051	-0.26651116	9.55974854	1.42490631	-1.94856279	19.94137624	-0.95864534	6.55496082	5.87462541	2.95618072	9.96363876
1031	10.30000000	-6.87399008	-1.25595876	7.88613869	7.95884789	-1.00569136	2.70703103	10.47849368	4.21376365	1.63019366	7.62033023	-2.87200496	3.48832113	9.49037860	-2.40073334	-0.08244177	9.60482239	1.68316504	-1.89647773	20.21002457	-0.56862417	5.57336106	6.06945938	2.83839435	9.88703638
1032	10.31000000	-6.88449125	-1.34458449	7.89155671	7.81471321	-0.92347795	2.76672297	10.89606429	4.92627228	1.81418092	7.99655877	-3.55914896	3.49728286	9.50992823	-2.14561320	0.01442024	9.31140779	2.09525491	-1.87224212	20.45696448	-0.53087396	4.47045450	6.20597563	2.86909042	9.66742189
1033	10.32000000	-7.03743677	-1.46960740	7.94590402	7.76043929	-0.78008173	2.76972747	11.43682228	4.51874166	2.10539945	8.50278168	-4.48677111	3.31836965	9.50585996	-1.82313021	-0.05449707	9.07757508	2.37257595	-1.72245534	20.71661719	-0.19795105	2.48970316	5.76250076	3.05741263	9.93481895
1034	10.33000000	-7.23635860	-1.69045386	7.99000155	7.82708962	-0.58202188	2.85330236	10.92234088	2.31841062	2.74300300	9.00961274	-5.37717638	3.03504005	9.63599759	-1.45120087	-0.09545890	8.94822374	2.56865974	-1.48754741	20.45676034	0.55961584	-0.37045309	5.92137393	3.29563254	9.88168817
1035	10.34000000	-7.40305894	-1.83008862	8.07293115	7.97590686	-0.31992371	2.93232014	9.62677257	-0.19881635	3.44247801	9.22336348	-5.67582989	2.58519461	9.72760573	-1.16531231	-0.32864066	8.84399186	2.69230292	-1.26656537	20.05940168	2.34270256	-3.50520493	6.12835689	3.72260926	9.77314413
1036	10.35000000	-7.53248741	-1.91774434	8.03510273	8.29676480	-0.13661056	2.99136575	8.51695215	-2.00966456	3.22648311	9.26727516	-5.53072955	2.20526421	9.96677871	-1.22809576	-0.28161050	8.85844021	2.32608547	-1.08850240	19.83216062	5.19218902	-6.27039809	6.16985017	3.35981135	9.70753364
1037	10.36000000	-7.62589366	-1.85544271	8.04425413	8.59970579	-0.04220641	3.05493221	8.06673796	-3.29985314	2.78272374	9.50862697	-5.50377717	2.03050823	10.17820730	-1.47283804	-0.17463442	9.23109955	2.31078454	-1.13869691	20.52992876	6.76238354	-8.40237435	5.92897640	3.17551211	10.13363197
1038	10.37000000	-7.79897272	-1.72296316	8.09647062	8.99495423	-0.03410916	2.94864008	8.18693361	-3.41995158	2.69692376	9.78315431	-5.91661695	2.27705771	10.39493437	-1.65936461	0.27185549	9.50751452	2.43949597	-1.27122911	20.58685592	6.55655042	-9.94563267	5.83340764	3.06739173	10.33279317
1039	10.38000000	-7.99169199	-1.55668252	8.10459255	9.34484671	-0.26001898	2.75407901	8.10240561	-1.91282936	2.24155696	9.67066930	-6.46832890	2.76284106	10.41189480	-1.60192832	0.68303777	9.41902634	2.11861629	-1.33057893	19.15453925	4.75765402	-10.43521268	6.21834706	2.73389970	10.17687957
1040	10.39000000	-8.04044361	-1.49684421	8.18631992	9.66339060	-0.44167372	2.34715028	8.07087056	0.39641440	2.00961949	9.15749331	-6.83037848	3.18847397	10.43152433	-1.12065481	1.10294122	9.83923268	2.69936627	-1.59357939	17.40842505	3.86135134	-9.00369765	6.32044544	2.36199589	10.13588338
1041	10.40000000	-8.08000185	-1.43997129	8.25141093	9.68273830	-0.63671849	1.90289037	7.95651266	2.11023942	1.96776379	8.11804738	-6.68964333	3.26416296	10.52445523	-0.61235648	1.47454732	9.60525293	2.14506964	-1.81293996	17.00293726	-0.15847429	-7.78170668	6.34358408	2.25085793	10.07020803
1042	10.41000000	-8.10540518	-1.56268333	8.31476126	9.72016458	-1.03708845	1.71438967	8.17872063	2.71603026	1.50929607	6.99975976	-5.97681275	3.15338752	10.35180569	-0.09686193	1.78680689	9.72808239	2.26735582	-2.00900196	4.18214377	5.78347423	-0.12841914	6.07365632	2.24128872	10.24962326
1043	10.42000000	-8.21398146	-1.70773072	8.58332538	9.81737950	-1.28369406	1.86903093	8.96123816	2.79931411	1.26243773	6.54628319	-4.76049875	2.90784164	10.09928987	0.51889094	1.74363300	9.81900637	2.14819866	-2.33484859	8.05457807	1.75157100	15.56365604	6.49853505	2.44364401	10.08788497
1044	10.43000000	-8.63632645	-1.74809321	9.00736131	10.03192677	-1.44091854	2.16126822	10.08678502	3.29990714	2.30223388	7.09456573	-3.08056990	2.69172123	10.22068339	1.03893718	1.57464127	9.86881668	1.80559212	-2.32294339	-0.99214280	-5.14411581	15.43942409	6.33012099	2.66577158	10.20487229
1045	10.44000000	-9.03188183	-1.69248816	9.34604854	10.43234193	-1.59931494	2.41847041	11.58029662	0.64732341	3.92289645	8.16644668	-1.49109850	2.22045459	10.53606521	0.85605017	1.38337291	10.15875096	1.83504774	-2.10509064	-4.20834239	-0.97491130	8.44350887	6.33353527	3.03392422	10.17621791
1046	10.45000000	-9.00907389	-1.49224160	9.36858273	10.83719042	-1.38526322	2.58224858	12.09075222	-3.35908020	5.75227428	9.51103643	-0.38913574	1.93269574	10.87658095	0.14366994	1.38411133	10.26677923	2.12803329	-1.92564215	1.72383630	-0.24629282	8.65192510	6.14120257	3.48191834	10.51720899
1047	10.46000000	-8.66140644	-1.26171682	9.28737185	10.99370043	-1.00235732	3.04251457	10.36970022	-4.64372138	5.39662979	10.98667207	0.57853621	2.18971272	11.18009762	-0.58986390	1.44502795	10.39527930	2.66272759	-1.68274285	10.51329192	-2.52256613	10.71041107	5.88563658	3.50658013	10.93984678
